<?xml version="1.0" standalone="no"?>
<!DOCTYPE svg PUBLIC "-//W3C//DTD SVG 20010904//EN"
 "http://www.w3.org/TR/2001/REC-SVG-20010904/DTD/svg10.dtd">
<svg version="1.0" xmlns="http://www.w3.org/2000/svg"
 width="500.000000pt" height="500.000000pt" viewBox="0 0 500.000000 500.000000"
 preserveAspectRatio="xMidYMid meet">

<g transform="translate(0.000000,500.000000) scale(0.100000,-0.100000)"
fill="#000000" stroke="none">
<path d="M2695 2819 c-82 -31 -128 -92 -128 -174 -1 -102 50 -149 208 -191
132 -35 155 -47 155 -83 0 -39 -31 -63 -87 -68 -58 -5 -106 21 -129 69 l-15
33 -76 -3 -75 -4 6 -36 c8 -53 55 -111 117 -146 51 -29 60 -31 164 -31 125 0
154 11 208 78 24 30 32 49 35 95 8 118 -46 171 -226 218 -133 35 -168 67 -121
110 45 41 147 15 174 -44 9 -20 18 -22 82 -22 67 0 73 2 73 20 0 51 -60 129
-125 163 -47 24 -191 34 -240 16z"/>
<path d="M640 2505 l0 -315 75 0 74 0 3 136 3 136 95 -136 94 -136 171 0 170
0 15 53 15 52 106 3 106 3 15 -53 15 -53 80 -3 81 -3 -100 293 c-55 161 -103
303 -105 316 -5 21 -10 22 -88 22 l-82 0 -21 -57 c-11 -32 -58 -166 -103 -298
-45 -132 -85 -246 -89 -254 -6 -11 -17 -1 -43 35 -19 27 -71 98 -115 159 l-79
109 106 140 c58 77 110 146 114 153 6 10 -11 13 -80 13 l-88 0 -95 -132 -95
-133 -3 133 -3 132 -74 0 -75 0 0 -315z m854 38 c14 -50 26 -97 26 -102 0 -7
-24 -11 -60 -11 -33 0 -60 3 -60 6 0 9 52 188 57 197 7 12 8 10 37 -90z"/>
<path d="M1760 2755 l0 -65 90 0 90 0 0 -250 0 -250 75 0 75 0 0 250 0 250 90
0 90 0 0 65 0 65 -255 0 -255 0 0 -65z"/>
<path d="M2320 2505 l0 -315 75 0 75 0 0 315 0 315 -75 0 -75 0 0 -315z"/>
<path d="M3298 2742 c-14 -42 -60 -176 -101 -297 -42 -121 -79 -228 -82 -237
-6 -16 1 -18 72 -18 l79 0 18 55 17 55 104 0 104 0 17 -55 18 -55 77 0 78 0
-107 315 -107 315 -80 0 -80 0 -27 -78z m137 -192 c15 -52 30 -101 32 -107 4
-10 -12 -13 -62 -13 -58 0 -66 2 -61 18 32 112 60 202 62 200 1 -2 15 -46 29
-98z"/>
<path d="M3859 2691 c8 -5 20 -7 28 -4 9 4 13 -4 13 -26 0 -26 -4 -31 -25 -31
-14 0 -25 -4 -25 -10 0 -6 27 -10 60 -10 33 0 60 4 60 10 0 6 -11 10 -25 10
-21 0 -25 5 -25 29 0 26 3 29 25 25 14 -2 25 0 25 6 0 6 -27 10 -62 10 -41 0
-58 -3 -49 -9z"/>
<path d="M3862 2578 c-32 -32 -1 -88 48 -88 51 0 81 60 45 90 -22 18 -31 5
-11 -15 25 -26 4 -57 -37 -53 -27 2 -33 8 -35 31 -2 15 1 27 7 27 6 0 11 5 11
10 0 14 -13 13 -28 -2z"/>
<path d="M3850 2435 l0 -35 60 0 60 0 0 35 c0 41 -17 47 -22 8 -4 -39 -28 -42
-28 -4 0 17 -4 31 -10 31 -5 0 -10 -13 -10 -30 0 -20 -5 -30 -15 -30 -10 0
-15 10 -15 30 0 17 -4 30 -10 30 -5 0 -10 -16 -10 -35z"/>
<path d="M3850 2335 c0 -25 5 -45 10 -45 6 0 10 10 10 21 0 20 4 21 50 16 28
-3 50 -1 50 4 0 5 -22 9 -50 9 -43 0 -50 3 -50 20 0 11 -4 20 -10 20 -5 0 -10
-20 -10 -45z"/>
</g>
</svg>
